<svg width="50" height="50" fill="none" xmlns="http://www.w3.org/2000/svg"><rect width="50" height="50" rx="15" fill="#fff"/><path fill-rule="evenodd" clip-rule="evenodd" d="M23.93 10.57a3.372 3.372 0 0 0-.165-.838 1.174 1.174 0 0 0-.255-.45.476.476 0 0 0-.325-.137h-11.6a1.492 1.492 0 0 0-1.125.48c-.305.32-.46.85-.46 1.582v29.188a.806.806 0 0 0 .135.475c.12.156.27.275.435.337.265.106.54.175.82.213.44.056.88.08 1.325.075.38.006.76-.02 1.135-.075.28-.038.555-.107.82-.213a.88.88 0 0 0 .435-.337.905.905 0 0 0 .12-.475V28.513h7.43c.115 0 .23-.05.325-.137.115-.125.2-.281.255-.463a3.73 3.73 0 0 0 .165-.818c.035-.413.055-.832.05-1.244a15.65 15.65 0 0 0-.05-1.369 3.135 3.135 0 0 0-.165-.806 1.075 1.075 0 0 0-.255-.425.502.502 0 0 0-.325-.125H15.23v-8.613h7.955c.12 0 .235-.05.325-.15.11-.125.195-.275.255-.443.085-.257.14-.532.165-.807.035-.418.055-.837.05-1.256.005-.431-.015-.862-.05-1.287Zm17.045 26.88a3.475 3.475 0 0 0-.175-.818 1.015 1.015 0 0 0-.3-.444.653.653 0 0 0-.42-.137h-6.84v-26a.702.702 0 0 0-.155-.45 1.143 1.143 0 0 0-.51-.325c-.315-.1-.63-.163-.955-.2-.5-.056-1-.081-1.505-.075-.465-.006-.925.019-1.385.075-.325.031-.65.1-.97.2-.19.05-.365.162-.515.325a.702.702 0 0 0-.155.45v29.344c0 .73.175 1.256.535 1.58.37.326.84.5 1.325.482h11.13c.15.006.295-.05.42-.15.14-.131.245-.3.3-.481.09-.275.15-.556.175-.844.08-.837.08-1.681 0-2.512v-.02Z" fill="#00CD5E"/></svg>