<svg width="50" height="50" fill="none" xmlns="http://www.w3.org/2000/svg"><path d="M24.903 0C11.151 0 0 11.461 0 25.6 0 36.91 7.136 46.506 17.03 49.89c1.245.237 1.702-.555 1.702-1.231 0-.61-.023-2.627-.034-4.766-6.928 1.548-8.39-3.02-8.39-3.02-1.133-2.96-2.765-3.747-2.765-3.747-2.26-1.589.17-1.556.17-1.556 2.501.18 3.818 2.638 3.818 2.638 2.221 3.914 5.826 2.782 7.247 2.128.223-1.654.869-2.784 1.58-3.423-5.53-.647-11.345-2.842-11.345-12.651 0-2.795.973-5.079 2.566-6.872-.259-.644-1.111-3.248.24-6.774 0 0 2.092-.688 6.851 2.624 1.986-.568 4.117-.852 6.233-.861 2.117.01 4.249.293 6.239.86 4.753-3.311 6.842-2.623 6.842-2.623 1.355 3.526.502 6.13.244 6.774 1.596 1.793 2.563 4.077 2.563 6.872 0 9.832-5.826 11.997-11.371 12.63.893.795 1.689 2.353 1.689 4.741 0 3.426-.03 6.182-.03 7.026 0 .68.449 1.48 1.711 1.228 9.89-3.389 17.016-12.981 17.016-24.288C49.806 11.46 38.656 0 24.903 0Z" fill="#fff"/><path d="M9.327 36.467c-.055.127-.25.166-.427.078-.18-.083-.282-.257-.223-.384.053-.131.248-.168.429-.08.18.083.284.259.221.386Zm1.225 1.124c-.119.113-.35.06-.508-.118-.163-.179-.194-.417-.073-.532.122-.114.347-.06.51.118.164.18.195.418.071.532m.84 1.437c-.152.11-.402.007-.556-.22-.152-.228-.152-.501.003-.61.155-.11.4-.011.557.214.152.232.152.505-.004.617m1.422 1.664c-.137.155-.428.114-.64-.098-.218-.206-.279-.499-.142-.654.138-.155.43-.111.645.098.216.206.282.501.137.654m1.836.563c-.06.2-.34.291-.622.206-.281-.088-.466-.323-.409-.525.059-.202.34-.297.624-.206.281.087.466.32.408.524m2.09.239c.007.211-.232.386-.528.39-.298.007-.539-.164-.542-.372 0-.213.234-.387.531-.392.296-.006.539.164.539.374Zm2.053-.081c.036.206-.17.418-.464.474-.289.054-.556-.073-.593-.277-.036-.212.174-.423.462-.478.295-.052.558.072.595.281Z" fill="#161614"/></svg>